<mxfile host="65bd71144e">
    <diagram id="NmgdVfyIs4U79dHkuJGE" name="Page-2">
        <mxGraphModel dx="806" dy="497" grid="1" gridSize="10" guides="1" tooltips="1" connect="1" arrows="1" fold="1" page="1" pageScale="1" pageWidth="850" pageHeight="1100" math="0" shadow="0">
            <root>
                <mxCell id="0"/>
                <mxCell id="1" parent="0"/>
                <mxCell id="lfy2tZ6PHGsLvQlI5z7t-3" value="Returning Tools" style="swimlane;whiteSpace=wrap;html=1;" parent="1" vertex="1">
                    <mxGeometry x="250" y="80" width="260" height="680" as="geometry"/>
                </mxCell>
                <mxCell id="lfy2tZ6PHGsLvQlI5z7t-29" value="End" style="ellipse;whiteSpace=wrap;html=1;" parent="lfy2tZ6PHGsLvQlI5z7t-3" vertex="1">
                    <mxGeometry x="90" y="602" width="60" height="40" as="geometry"/>
                </mxCell>
                <mxCell id="lfy2tZ6PHGsLvQlI5z7t-31" value="Start" style="ellipse;whiteSpace=wrap;html=1;" parent="lfy2tZ6PHGsLvQlI5z7t-3" vertex="1">
                    <mxGeometry x="90" y="70" width="60" height="40" as="geometry"/>
                </mxCell>
                <mxCell id="lfy2tZ6PHGsLvQlI5z7t-34" style="edgeStyle=orthogonalEdgeStyle;html=1;entryX=1;entryY=0.5;entryDx=0;entryDy=0;exitX=1;exitY=0.5;exitDx=0;exitDy=0;" parent="lfy2tZ6PHGsLvQlI5z7t-3" source="lfy2tZ6PHGsLvQlI5z7t-36" target="lfy2tZ6PHGsLvQlI5z7t-29" edge="1">
                    <mxGeometry relative="1" as="geometry">
                        <Array as="points">
                            <mxPoint x="210" y="282"/>
                            <mxPoint x="210" y="622"/>
                        </Array>
                    </mxGeometry>
                </mxCell>
                <mxCell id="lfy2tZ6PHGsLvQlI5z7t-35" value="No" style="edgeLabel;html=1;align=center;verticalAlign=middle;resizable=0;points=[];" parent="lfy2tZ6PHGsLvQlI5z7t-34" vertex="1" connectable="0">
                    <mxGeometry x="-0.3003" relative="1" as="geometry">
                        <mxPoint as="offset"/>
                    </mxGeometry>
                </mxCell>
                <mxCell id="lfy2tZ6PHGsLvQlI5z7t-36" value="Any Tools Missing?" style="rhombus;whiteSpace=wrap;html=1;" parent="lfy2tZ6PHGsLvQlI5z7t-3" vertex="1">
                    <mxGeometry x="80" y="242" width="80" height="80" as="geometry"/>
                </mxCell>
                <mxCell id="lfy2tZ6PHGsLvQlI5z7t-37" style="edgeStyle=orthogonalEdgeStyle;html=1;" parent="lfy2tZ6PHGsLvQlI5z7t-3" source="lfy2tZ6PHGsLvQlI5z7t-38" target="lfy2tZ6PHGsLvQlI5z7t-36" edge="1">
                    <mxGeometry relative="1" as="geometry"/>
                </mxCell>
                <mxCell id="lfy2tZ6PHGsLvQlI5z7t-38" value="Scan Barcode/Select Tools" style="rounded=0;whiteSpace=wrap;html=1;" parent="lfy2tZ6PHGsLvQlI5z7t-3" vertex="1">
                    <mxGeometry x="70" y="152" width="100" height="50" as="geometry"/>
                </mxCell>
                <mxCell id="lfy2tZ6PHGsLvQlI5z7t-30" style="edgeStyle=orthogonalEdgeStyle;html=1;" parent="lfy2tZ6PHGsLvQlI5z7t-3" source="lfy2tZ6PHGsLvQlI5z7t-31" target="lfy2tZ6PHGsLvQlI5z7t-38" edge="1">
                    <mxGeometry relative="1" as="geometry"/>
                </mxCell>
                <mxCell id="lfy2tZ6PHGsLvQlI5z7t-39" style="edgeStyle=orthogonalEdgeStyle;html=1;" parent="lfy2tZ6PHGsLvQlI5z7t-3" source="lfy2tZ6PHGsLvQlI5z7t-40" target="lfy2tZ6PHGsLvQlI5z7t-29" edge="1">
                    <mxGeometry relative="1" as="geometry"/>
                </mxCell>
                <mxCell id="lfy2tZ6PHGsLvQlI5z7t-40" value="Upload Evidence BA Missing" style="rounded=0;whiteSpace=wrap;html=1;" parent="lfy2tZ6PHGsLvQlI5z7t-3" vertex="1">
                    <mxGeometry x="70" y="502" width="100" height="50" as="geometry"/>
                </mxCell>
                <mxCell id="lfy2tZ6PHGsLvQlI5z7t-32" style="edgeStyle=orthogonalEdgeStyle;html=1;exitX=0.5;exitY=1;exitDx=0;exitDy=0;" parent="lfy2tZ6PHGsLvQlI5z7t-3" source="lfy2tZ6PHGsLvQlI5z7t-36" target="lfy2tZ6PHGsLvQlI5z7t-40" edge="1">
                    <mxGeometry relative="1" as="geometry">
                        <mxPoint x="-126" y="327" as="targetPoint"/>
                    </mxGeometry>
                </mxCell>
                <mxCell id="lfy2tZ6PHGsLvQlI5z7t-33" value="Yes" style="edgeLabel;html=1;align=center;verticalAlign=middle;resizable=0;points=[];" parent="lfy2tZ6PHGsLvQlI5z7t-32" vertex="1" connectable="0">
                    <mxGeometry x="-0.1859" y="1" relative="1" as="geometry">
                        <mxPoint as="offset"/>
                    </mxGeometry>
                </mxCell>
            </root>
        </mxGraphModel>
    </diagram>
    <diagram id="9tg3SJVjGoA6f0Xj8tDZ" name="Page-1">
        <mxGraphModel dx="806" dy="497" grid="1" gridSize="10" guides="1" tooltips="1" connect="1" arrows="1" fold="1" page="1" pageScale="1" pageWidth="850" pageHeight="1100" math="0" shadow="0">
            <root>
                <mxCell id="0"/>
                <mxCell id="1" parent="0"/>
                <mxCell id="84" value="Borrower" style="swimlane;whiteSpace=wrap;html=1;" parent="1" vertex="1">
                    <mxGeometry x="40" y="63" width="270" height="857" as="geometry"/>
                </mxCell>
                <mxCell id="85" value="Tool Store" style="swimlane;whiteSpace=wrap;html=1;" parent="1" vertex="1">
                    <mxGeometry x="310" y="63" width="270" height="857" as="geometry"/>
                </mxCell>
                <mxCell id="105" value="Returning Tools" style="swimlane;whiteSpace=wrap;html=1;" parent="1" vertex="1">
                    <mxGeometry x="40" y="40" width="540" height="920" as="geometry"/>
                </mxCell>
                <mxCell id="114" value="End" style="ellipse;whiteSpace=wrap;html=1;" parent="105" vertex="1">
                    <mxGeometry x="380" y="620" width="60" height="40" as="geometry"/>
                </mxCell>
                <mxCell id="122" style="edgeStyle=none;html=1;" parent="105" source="120" target="121" edge="1">
                    <mxGeometry relative="1" as="geometry"/>
                </mxCell>
                <mxCell id="120" value="Start" style="ellipse;whiteSpace=wrap;html=1;" parent="105" vertex="1">
                    <mxGeometry x="104" y="80" width="60" height="40" as="geometry"/>
                </mxCell>
                <mxCell id="133" style="edgeStyle=orthogonalEdgeStyle;html=1;" parent="105" source="121" target="132" edge="1">
                    <mxGeometry relative="1" as="geometry"/>
                </mxCell>
                <mxCell id="121" value="Return the tools" style="rounded=0;whiteSpace=wrap;html=1;" parent="105" vertex="1">
                    <mxGeometry x="84" y="170" width="100" height="50" as="geometry"/>
                </mxCell>
                <mxCell id="141" style="edgeStyle=orthogonalEdgeStyle;html=1;" parent="105" source="123" edge="1">
                    <mxGeometry relative="1" as="geometry">
                        <mxPoint x="410" y="390" as="targetPoint"/>
                    </mxGeometry>
                </mxCell>
                <mxCell id="147" value="Yes" style="edgeLabel;html=1;align=center;verticalAlign=middle;resizable=0;points=[];" parent="141" vertex="1" connectable="0">
                    <mxGeometry x="-0.1859" y="1" relative="1" as="geometry">
                        <mxPoint as="offset"/>
                    </mxGeometry>
                </mxCell>
                <mxCell id="148" style="edgeStyle=orthogonalEdgeStyle;html=1;entryX=1;entryY=0.5;entryDx=0;entryDy=0;exitX=1;exitY=0.5;exitDx=0;exitDy=0;" parent="105" source="123" target="114" edge="1">
                    <mxGeometry relative="1" as="geometry">
                        <Array as="points">
                            <mxPoint x="500" y="300"/>
                            <mxPoint x="500" y="640"/>
                        </Array>
                    </mxGeometry>
                </mxCell>
                <mxCell id="149" value="No" style="edgeLabel;html=1;align=center;verticalAlign=middle;resizable=0;points=[];" parent="148" vertex="1" connectable="0">
                    <mxGeometry x="-0.3003" relative="1" as="geometry">
                        <mxPoint as="offset"/>
                    </mxGeometry>
                </mxCell>
                <mxCell id="123" value="Any Tools Missing?" style="rhombus;whiteSpace=wrap;html=1;" parent="105" vertex="1">
                    <mxGeometry x="370" y="260" width="80" height="80" as="geometry"/>
                </mxCell>
                <mxCell id="134" style="edgeStyle=orthogonalEdgeStyle;html=1;" parent="105" source="132" target="123" edge="1">
                    <mxGeometry relative="1" as="geometry"/>
                </mxCell>
                <mxCell id="132" value="Scan/Input ID Card" style="rounded=0;whiteSpace=wrap;html=1;" parent="105" vertex="1">
                    <mxGeometry x="360" y="170" width="100" height="50" as="geometry"/>
                </mxCell>
                <mxCell id="137" style="edgeStyle=orthogonalEdgeStyle;html=1;" parent="105" source="135" target="114" edge="1">
                    <mxGeometry relative="1" as="geometry"/>
                </mxCell>
                <mxCell id="135" value="Upload Evidence BA Missing" style="rounded=0;whiteSpace=wrap;html=1;" parent="105" vertex="1">
                    <mxGeometry x="360" y="520" width="100" height="50" as="geometry"/>
                </mxCell>
                <mxCell id="145" style="edgeStyle=orthogonalEdgeStyle;html=1;entryX=1;entryY=0.5;entryDx=0;entryDy=0;" parent="105" source="142" target="144" edge="1">
                    <mxGeometry relative="1" as="geometry"/>
                </mxCell>
                <mxCell id="142" value="Daily email reminder for missing tools to borrower" style="shape=document;whiteSpace=wrap;html=1;boundedLbl=1;" parent="105" vertex="1">
                    <mxGeometry x="350" y="390" width="120" height="80" as="geometry"/>
                </mxCell>
                <mxCell id="146" style="edgeStyle=orthogonalEdgeStyle;html=1;entryX=0;entryY=0.5;entryDx=0;entryDy=0;exitX=0;exitY=0.75;exitDx=0;exitDy=0;" parent="105" source="144" target="135" edge="1">
                    <mxGeometry relative="1" as="geometry"/>
                </mxCell>
                <mxCell id="144" value="Fill the BA Missing" style="shape=document;whiteSpace=wrap;html=1;boundedLbl=1;" parent="105" vertex="1">
                    <mxGeometry x="74" y="390" width="120" height="80" as="geometry"/>
                </mxCell>
            </root>
        </mxGraphModel>
    </diagram>
</mxfile>